<svg width="18" height="18" viewBox="0 0 18 18" fill="none" xmlns="http://www.w3.org/2000/svg">
<g clip-path="url(#clip0_147_415)">
<path d="M5.625 5.48438H2.24543C3.52368 2.94479 6.03039 1.40625 9 1.40625C13.2582 1.40625 16.5938 4.7418 16.5938 9H18C18 3.95329 14.0468 0 9 0C5.81709 0 3.02411 1.54888 1.40625 4.11855V1.26562H0V6.89062H5.625V5.48438Z" fill="#333333"/>
<path d="M12.375 12.5156H15.7546C14.4763 15.0552 11.9696 16.5938 9 16.5938C4.74184 16.5938 1.40625 13.2582 1.40625 9H0C0 14.0467 3.95325 18 9 18C12.1829 18 14.9759 16.4511 16.5938 13.8814V16.7344H18V11.1094H12.375V12.5156Z" fill="#333333"/>
</g>
<defs>
<clipPath id="clip0_147_415">
<rect width="18" height="18" fill="white"/>
</clipPath>
</defs>
</svg>
