<svg width="280" height="48" viewBox="0 0 280 48" fill="none" xmlns="http://www.w3.org/2000/svg">
<path d="M72.1487 26.8176C72.1487 24.7168 72.5751 22.8136 73.4279 21.108C74.3015 19.4024 75.5495 18.0608 77.1719 17.0832C78.8151 16.0848 80.7599 15.5856 83.0063 15.5856C85.1487 15.5856 86.9583 16.0224 88.4351 16.896C89.9327 17.7488 91.0559 18.8304 91.8047 20.1408C92.5743 21.4304 93.0111 22.7408 93.1151 24.072H88.9031C88.7991 23.3024 88.5183 22.5536 88.0607 21.8256C87.6031 21.0976 86.9479 20.5048 86.0951 20.0472C85.2631 19.5688 84.2543 19.3296 83.0687 19.3296C81.6959 19.3296 80.4999 19.6624 79.4807 20.328C78.4823 20.9936 77.7127 21.8984 77.1719 23.0424C76.6519 24.1656 76.3919 25.424 76.3919 26.8176C76.3919 28.2112 76.6519 29.48 77.1719 30.624C77.7127 31.7472 78.4823 32.6416 79.4807 33.3072C80.4999 33.9728 81.6959 34.3056 83.0687 34.3056C84.2543 34.3056 85.2631 34.0768 86.0951 33.6192C86.9479 33.1408 87.6031 32.5376 88.0607 31.8096C88.5183 31.0816 88.7991 30.3328 88.9031 29.5632H93.1151C93.0111 30.8944 92.5743 32.2152 91.8047 33.5256C91.0559 34.8152 89.9327 35.8968 88.4351 36.7704C86.9583 37.6232 85.1487 38.0496 83.0063 38.0496C80.7599 38.0496 78.8151 37.5608 77.1719 36.5832C75.5495 35.5848 74.3015 34.2328 73.4279 32.5272C72.5751 30.8216 72.1487 28.9184 72.1487 26.8176ZM94.6042 33.276C94.6042 31.5704 95.145 30.312 96.2266 29.5008C97.329 28.6688 98.785 28.2008 100.595 28.0968L102.186 28.0344C103.6 27.9928 104.609 27.8992 105.212 27.7536C105.815 27.608 106.107 27.2544 106.086 26.6928C106.065 25.9856 105.826 25.4136 105.368 24.9768C104.911 24.54 104.047 24.3216 102.779 24.3216C101.489 24.3216 100.574 24.5504 100.033 25.008C99.4922 25.4448 99.1594 26.048 99.0346 26.8176H95.1034C95.3738 24.8624 96.237 23.4168 97.693 22.4808C99.149 21.5448 100.886 21.0768 102.903 21.0768C105.108 21.0768 106.855 21.6176 108.145 22.6992C109.435 23.7808 110.079 25.7776 110.079 28.6896V37.8H106.086V36.6456C106.086 36.0216 106.242 35.4184 106.554 34.836C106.637 34.628 106.679 34.472 106.679 34.368C106.679 34.2432 106.627 34.16 106.523 34.1184L106.398 34.0872C106.273 34.0872 106.179 34.1496 106.117 34.2744C106.055 34.3784 106.023 34.4408 106.023 34.4616C105.046 36.8536 103.153 38.0496 100.345 38.0496C99.3258 38.0496 98.369 37.8416 97.4746 37.4256C96.601 37.0096 95.9042 36.4376 95.3842 35.7096C94.8642 34.9816 94.6042 34.1704 94.6042 33.276ZM106.086 29.3136C105.67 29.7712 105.119 30.0936 104.432 30.2808C103.767 30.4472 102.716 30.6032 101.281 30.7488C100.387 30.8528 99.7106 31.092 99.253 31.4664C98.8162 31.82 98.5978 32.3504 98.5978 33.0576C98.5978 33.6608 98.8266 34.1496 99.2842 34.524C99.7626 34.8984 100.376 35.0856 101.125 35.0856C101.395 35.0856 101.603 35.0752 101.749 35.0544C102.976 34.888 103.995 34.3576 104.807 33.4632C105.639 32.5688 106.065 31.1856 106.086 29.3136ZM117.085 21.9504C117.085 22.512 116.94 23.084 116.648 23.6664C116.628 23.7288 116.586 23.8224 116.524 23.9472C116.482 24.072 116.461 24.176 116.461 24.2592C116.461 24.3632 116.513 24.4464 116.617 24.5088L116.742 24.54C116.888 24.54 116.992 24.4776 117.054 24.3528C117.116 24.228 117.158 24.1552 117.179 24.1344C117.72 23.1984 118.416 22.46 119.269 21.9192C120.143 21.3576 121.183 21.0768 122.389 21.0768C123.783 21.0768 125.02 21.4512 126.102 22.2C127.204 22.9488 128.057 23.968 128.66 25.2576C129.264 26.5472 129.565 27.9824 129.565 29.5632C129.565 31.144 129.264 32.5792 128.66 33.8688C128.057 35.1584 127.204 36.1776 126.102 36.9264C125.02 37.6752 123.783 38.0496 122.389 38.0496C121.204 38.0496 120.164 37.7792 119.269 37.2384C118.396 36.6768 117.699 35.9176 117.179 34.9608C117.179 34.94 117.137 34.8672 117.054 34.7424C116.992 34.6176 116.877 34.5864 116.711 34.6488C116.565 34.7112 116.492 34.8048 116.492 34.9296C116.492 35.0752 116.544 35.2312 116.648 35.3976C116.94 35.98 117.085 36.5416 117.085 37.0824V43.7904H113.092V21.3264H117.085V21.9504ZM121.453 34.4304C122.784 34.4304 123.804 33.9728 124.511 33.0576C125.218 32.1216 125.572 30.9568 125.572 29.5632C125.572 28.1696 125.218 27.0152 124.511 26.1C123.804 25.164 122.784 24.696 121.453 24.696C120.6 24.696 119.841 24.9144 119.176 25.3512C118.51 25.788 117.99 26.3808 117.616 27.1296C117.262 27.8784 117.085 28.6896 117.085 29.5632C117.085 30.4368 117.262 31.248 117.616 31.9968C117.99 32.7456 118.51 33.3384 119.176 33.7752C119.841 34.212 120.6 34.4304 121.453 34.4304ZM137.321 24.8208V32.34C137.321 33.0056 137.342 33.4632 137.384 33.7128C137.446 33.9624 137.581 34.1288 137.789 34.212C138.018 34.2744 138.434 34.3056 139.037 34.3056H141.814V37.8H138.195C137.051 37.8 136.125 37.6544 135.418 37.3632C134.711 37.0512 134.18 36.5312 133.827 35.8032C133.494 35.0752 133.328 34.056 133.328 32.7456V24.8208H130.332V21.3264H133.328V16.8336H137.321V21.3264H141.814V24.8208H137.321ZM144.566 15.336H148.559V19.3296H144.566V15.336ZM144.566 21.3264H148.559V37.8H144.566V21.3264ZM158.812 21.0768C160.476 21.0768 161.932 21.4512 163.18 22.2C164.428 22.9488 165.385 23.968 166.05 25.2576C166.716 26.5472 167.049 27.9824 167.049 29.5632C167.049 31.144 166.716 32.5792 166.05 33.8688C165.385 35.1584 164.428 36.1776 163.18 36.9264C161.932 37.6752 160.476 38.0496 158.812 38.0496C157.148 38.0496 155.692 37.6752 154.444 36.9264C153.196 36.1776 152.239 35.1584 151.574 33.8688C150.908 32.5792 150.575 31.144 150.575 29.5632C150.575 27.9824 150.908 26.5472 151.574 25.2576C152.239 23.968 153.196 22.9488 154.444 22.2C155.692 21.4512 157.148 21.0768 158.812 21.0768ZM158.812 34.4304C160.122 34.4304 161.152 33.9728 161.901 33.0576C162.67 32.1216 163.055 30.9568 163.055 29.5632C163.055 28.1696 162.67 27.0152 161.901 26.1C161.152 25.164 160.122 24.696 158.812 24.696C157.502 24.696 156.462 25.164 155.692 26.1C154.943 27.0152 154.569 28.1696 154.569 29.5632C154.569 30.9568 154.943 32.1216 155.692 33.0576C156.462 33.9728 157.502 34.4304 158.812 34.4304ZM178.61 21.0768C180.44 21.0768 181.886 21.6696 182.947 22.8552C184.008 24.0408 184.538 25.7776 184.538 28.0656V37.8H180.544V29.4384C180.544 27.6496 180.305 26.412 179.827 25.7256C179.348 25.0392 178.568 24.696 177.487 24.696C176.717 24.696 175.989 24.9664 175.303 25.5072C174.637 26.048 174.096 26.8072 173.68 27.7848C173.264 28.7624 173.056 29.8648 173.056 31.092V37.8H169.063V21.3264H173.056V22.356C173.056 22.8344 173.015 23.24 172.932 23.5728C172.848 23.9056 172.724 24.2488 172.557 24.6024C172.453 24.852 172.401 25.0184 172.401 25.1016C172.401 25.2888 172.484 25.3928 172.651 25.4136H172.744C172.89 25.4136 173.015 25.2888 173.119 25.0392C173.576 24.02 174.284 23.1048 175.24 22.2936C176.197 21.4824 177.32 21.0768 178.61 21.0768ZM195.764 24.3528C197.656 24.5816 199.227 24.9248 200.475 25.3824C201.744 25.8192 202.732 26.5056 203.439 27.4416C204.146 28.3776 204.5 29.6464 204.5 31.248C204.5 32.4752 204.146 33.6088 203.439 34.6488C202.752 35.6888 201.733 36.5208 200.381 37.1448C199.029 37.748 197.407 38.0496 195.514 38.0496C193.559 38.0496 191.905 37.6752 190.553 36.9264C189.201 36.1776 188.192 35.2 187.527 33.9936C186.861 32.7872 186.528 31.4768 186.528 30.0624H190.647C190.688 31.2272 191.063 32.2672 191.77 33.1824C192.477 34.0976 193.725 34.5552 195.514 34.5552C196.637 34.5552 197.552 34.3992 198.26 34.0872C198.988 33.7544 199.497 33.3592 199.788 32.9016C200.1 32.4232 200.256 31.9552 200.256 31.4976C200.256 30.6864 199.913 30.0312 199.227 29.532C198.54 29.012 197.303 28.6376 195.514 28.4088C193.455 28.1384 191.822 27.7328 190.616 27.192C189.43 26.6304 188.577 25.9232 188.057 25.0704C187.537 24.1968 187.277 23.1152 187.277 21.8256C187.277 20.6816 187.61 19.6312 188.276 18.6744C188.941 17.7176 189.898 16.9688 191.146 16.428C192.415 15.8664 193.892 15.5856 195.576 15.5856C197.386 15.5856 198.894 15.908 200.1 16.5528C201.307 17.1976 202.201 18.0504 202.784 19.1112C203.366 20.172 203.668 21.3264 203.688 22.5744H199.664C199.664 21.68 199.331 20.8792 198.665 20.172C198 19.444 196.949 19.08 195.514 19.08C194.079 19.08 193.049 19.3504 192.425 19.8912C191.801 20.432 191.489 21.0144 191.489 21.6384C191.489 23.136 192.914 24.0408 195.764 24.3528ZM210.99 21.9504C210.99 22.512 210.844 23.084 210.553 23.6664C210.532 23.7288 210.491 23.8224 210.428 23.9472C210.387 24.072 210.366 24.176 210.366 24.2592C210.366 24.3632 210.418 24.4464 210.522 24.5088L210.647 24.54C210.792 24.54 210.896 24.4776 210.959 24.3528C211.021 24.228 211.063 24.1552 211.084 24.1344C211.624 23.1984 212.321 22.46 213.174 21.9192C214.048 21.3576 215.088 21.0768 216.294 21.0768C217.688 21.0768 218.925 21.4512 220.007 22.2C221.109 22.9488 221.962 23.968 222.565 25.2576C223.168 26.5472 223.47 27.9824 223.47 29.5632C223.47 31.144 223.168 32.5792 222.565 33.8688C221.962 35.1584 221.109 36.1776 220.007 36.9264C218.925 37.6752 217.688 38.0496 216.294 38.0496C215.108 38.0496 214.068 37.7792 213.174 37.2384C212.3 36.6768 211.604 35.9176 211.084 34.9608C211.084 34.94 211.042 34.8672 210.959 34.7424C210.896 34.6176 210.782 34.5864 210.616 34.6488C210.47 34.7112 210.397 34.8048 210.397 34.9296C210.397 35.0752 210.449 35.2312 210.553 35.3976C210.844 35.98 210.99 36.5416 210.99 37.0824V43.7904H206.996V21.3264H210.99V21.9504ZM215.358 34.4304C216.689 34.4304 217.708 33.9728 218.416 33.0576C219.123 32.1216 219.476 30.9568 219.476 29.5632C219.476 28.1696 219.123 27.0152 218.416 26.1C217.708 25.164 216.689 24.696 215.358 24.696C214.505 24.696 213.746 24.9144 213.08 25.3512C212.415 25.788 211.895 26.3808 211.52 27.1296C211.167 27.8784 210.99 28.6896 210.99 29.5632C210.99 30.4368 211.167 31.248 211.52 31.9968C211.895 32.7456 212.415 33.3384 213.08 33.7752C213.746 34.212 214.505 34.4304 215.358 34.4304ZM224.98 33.276C224.98 31.5704 225.521 30.312 226.602 29.5008C227.705 28.6688 229.161 28.2008 230.97 28.0968L232.562 28.0344C233.976 27.9928 234.985 27.8992 235.588 27.7536C236.191 27.608 236.482 27.2544 236.462 26.6928C236.441 25.9856 236.202 25.4136 235.744 24.9768C235.286 24.54 234.423 24.3216 233.154 24.3216C231.865 24.3216 230.95 24.5504 230.409 25.008C229.868 25.4448 229.535 26.048 229.41 26.8176H225.479C225.75 24.8624 226.613 23.4168 228.069 22.4808C229.525 21.5448 231.262 21.0768 233.279 21.0768C235.484 21.0768 237.231 21.6176 238.521 22.6992C239.81 23.7808 240.455 25.7776 240.455 28.6896V37.8H236.462V36.6456C236.462 36.0216 236.618 35.4184 236.93 34.836C237.013 34.628 237.054 34.472 237.054 34.368C237.054 34.2432 237.002 34.16 236.898 34.1184L236.774 34.0872C236.649 34.0872 236.555 34.1496 236.493 34.2744C236.43 34.3784 236.399 34.4408 236.399 34.4616C235.422 36.8536 233.529 38.0496 230.721 38.0496C229.702 38.0496 228.745 37.8416 227.85 37.4256C226.977 37.0096 226.28 36.4376 225.76 35.7096C225.24 34.9816 224.98 34.1704 224.98 33.276ZM236.462 29.3136C236.046 29.7712 235.494 30.0936 234.808 30.2808C234.142 30.4472 233.092 30.6032 231.657 30.7488C230.762 30.8528 230.086 31.092 229.629 31.4664C229.192 31.82 228.974 32.3504 228.974 33.0576C228.974 33.6608 229.202 34.1496 229.66 34.524C230.138 34.8984 230.752 35.0856 231.501 35.0856C231.771 35.0856 231.979 35.0752 232.125 35.0544C233.352 34.888 234.371 34.3576 235.182 33.4632C236.014 32.5688 236.441 31.1856 236.462 29.3136ZM247.18 24.852C247.263 24.852 247.336 24.8208 247.399 24.7584C247.461 24.6752 247.503 24.6024 247.523 24.54C247.898 23.6872 248.283 23.0216 248.678 22.5432C249.073 22.0648 249.645 21.7008 250.394 21.4512C251.143 21.2016 252.162 21.0768 253.451 21.0768V25.1328C253.202 25.112 252.859 25.1016 252.422 25.1016C250.571 25.1016 249.281 25.5384 248.553 26.412C247.825 27.2648 247.461 28.6792 247.461 30.6552V37.8H243.467V21.3264H247.461V22.2312C247.461 22.876 247.305 23.5104 246.993 24.1344C246.91 24.3008 246.868 24.436 246.868 24.54C246.868 24.7064 246.962 24.8104 247.149 24.852H247.18ZM266.199 37.8L261.145 30.9048L259.709 32.34V37.8H255.716V15.336H259.709V25.164C259.709 25.7672 259.647 26.2456 259.522 26.5992C259.397 26.932 259.189 27.2752 258.898 27.6288C258.815 27.7536 258.773 27.8472 258.773 27.9096C258.773 28.0136 258.815 28.0968 258.898 28.1592C258.961 28.2216 259.033 28.2528 259.117 28.2528C259.2 28.2528 259.304 28.1904 259.429 28.0656L265.7 21.3264H270.692L263.828 28.2216L271.191 37.8H266.199Z" fill="black"/>
<path d="M24.3635 36.4531C22.915 36.4531 21.6354 36.1191 20.5244 35.4511C19.4135 34.7832 18.5416 33.841 17.9088 32.6246C17.276 31.4082 16.9596 29.9843 16.9596 28.3531C16.9596 26.7078 17.276 25.2769 17.9088 24.0605C18.5416 22.8441 19.4135 21.9019 20.5244 21.2339C21.6354 20.566 22.915 20.232 24.3635 20.232C25.5447 20.232 26.6135 20.464 27.5697 20.9281C28.526 21.3921 29.3135 22.046 29.9322 22.8898C30.558 23.7335 30.9588 24.7285 31.1346 25.8746H28.2975C28.0865 24.8761 27.633 24.1027 26.9369 23.5542C26.2408 23.0058 25.39 22.7316 24.3846 22.7316C23.4283 22.7316 22.6021 22.9636 21.9061 23.4277C21.217 23.8917 20.6861 24.5457 20.3135 25.3894C19.9479 26.2332 19.765 27.221 19.765 28.3531C19.765 29.4781 19.9479 30.4625 20.3135 31.3062C20.6861 32.1429 21.217 32.7933 21.9061 33.2574C22.5951 33.7214 23.4213 33.9535 24.3846 33.9535C25.383 33.9535 26.2303 33.6828 26.9264 33.1414C27.6225 32.6 28.083 31.83 28.308 30.8316H31.1346C30.9588 31.9777 30.558 32.9726 29.9322 33.8164C29.3135 34.6531 28.526 35.3035 27.5697 35.7675C26.6135 36.2246 25.5447 36.4531 24.3635 36.4531ZM38.8443 36.4531C36.8967 36.4531 35.3709 35.9785 34.267 35.0292C33.1701 34.073 32.6217 32.7546 32.6217 31.0742H35.3533C35.3674 32.0234 35.6803 32.7652 36.292 33.2996C36.9107 33.8339 37.7686 34.1011 38.8654 34.1011C39.8428 34.1011 40.6303 33.8972 41.2279 33.4894C41.8256 33.0746 42.1244 32.5226 42.1244 31.8335C42.1244 31.2781 41.8994 30.8281 41.4494 30.4835C40.9994 30.132 40.2506 29.8367 39.2029 29.5976L37.5154 29.2179C35.9475 28.8593 34.7908 28.3285 34.0455 27.6253C33.3002 26.9222 32.9275 26.0187 32.9275 24.9148C32.9275 23.9796 33.1666 23.1605 33.6447 22.4574C34.1299 21.7542 34.8049 21.2093 35.6697 20.8226C36.5416 20.4289 37.5541 20.232 38.7072 20.232C40.465 20.232 41.8572 20.6785 42.8838 21.5714C43.9174 22.4644 44.4553 23.6914 44.4975 25.2523H41.8502C41.7939 24.4226 41.4846 23.7722 40.9221 23.3011C40.3596 22.83 39.6178 22.5945 38.6967 22.5945C37.8248 22.5945 37.1111 22.7984 36.5557 23.2062C36.0002 23.614 35.7225 24.1378 35.7225 24.7777C35.7225 25.305 35.9404 25.7339 36.3764 26.0644C36.8193 26.3878 37.5541 26.6656 38.5807 26.8976L40.1732 27.2667C41.8045 27.6253 42.9998 28.1597 43.7592 28.8699C44.5186 29.58 44.8982 30.5117 44.8982 31.6648C44.8982 32.6421 44.6521 33.4894 44.16 34.2066C43.6678 34.9238 42.9682 35.4792 42.0611 35.873C41.1541 36.2597 40.0818 36.4531 38.8443 36.4531Z" fill="#6E62E5"/>
<path d="M36 14H15C11.6863 14 9 16.6863 9 20V36.8C9 40.1137 11.6863 42.8 15 42.8H47.4C50.7137 42.8 53.4 40.1137 53.4 36.8V32" stroke="#6E62E5" stroke-width="2.4" stroke-linecap="round"/>
<path d="M63.7638 12.7969L60.4927 11.8601C59.0197 11.4439 57.6779 10.6559 56.5957 9.57132C55.5135 8.48678 54.7271 7.14206 54.3118 5.66584L53.3771 2.38772C53.3301 2.27303 53.2501 2.17493 53.1473 2.1059C53.0446 2.03686 52.9236 2 52.7999 2C52.6762 2 52.5553 2.03686 52.4525 2.1059C52.3497 2.17493 52.2697 2.27303 52.2227 2.38772L51.288 5.66584C50.8727 7.14206 50.0863 8.48678 49.0041 9.57132C47.9219 10.6559 46.5801 11.4439 45.1071 11.8601L41.8361 12.7969C41.7105 12.8326 41.5999 12.9084 41.5212 13.0128C41.4425 13.1172 41.3999 13.2445 41.3999 13.3753C41.3999 13.5062 41.4425 13.6334 41.5212 13.7378C41.5999 13.8422 41.7105 13.918 41.8361 13.9537L45.1071 14.8905C46.5801 15.3067 47.9219 16.0948 49.0041 17.1793C50.0863 18.2638 50.8727 19.6086 51.288 21.0848L52.2227 24.3629C52.2584 24.4888 52.334 24.5996 52.4382 24.6784C52.5423 24.7573 52.6693 24.8 52.7999 24.8C52.9305 24.8 53.0575 24.7573 53.1616 24.6784C53.2658 24.5996 53.3414 24.4888 53.3771 24.3629L54.3118 21.0848C54.7271 19.6086 55.5135 18.2638 56.5957 17.1793C57.6779 16.0948 59.0197 15.3067 60.4927 14.8905L63.7638 13.9537C63.8893 13.918 63.9999 13.8422 64.0786 13.7378C64.1573 13.6334 64.1999 13.5062 64.1999 13.3753C64.1999 13.2445 64.1573 13.1172 64.0786 13.0128C63.9999 12.9084 63.8893 12.8326 63.7638 12.7969Z" fill="#6E62E5"/>
</svg>
