<svg width="220" height="35" viewBox="0 0 220 35" fill="none" xmlns="http://www.w3.org/2000/svg">
<path d="M53.624 20.848C53.624 19.0973 53.9793 17.5113 54.69 16.09C55.418 14.6687 56.458 13.5507 57.81 12.736C59.1793 11.904 60.8 11.488 62.672 11.488C64.4573 11.488 65.9653 11.852 67.196 12.58C68.444 13.2907 69.38 14.192 70.004 15.284C70.6453 16.3587 71.0093 17.4507 71.096 18.56H67.586C67.4993 17.9187 67.2653 17.2947 66.884 16.688C66.5027 16.0813 65.9567 15.5873 65.246 15.206C64.5527 14.8073 63.712 14.608 62.724 14.608C61.58 14.608 60.5833 14.8853 59.734 15.44C58.902 15.9947 58.2607 16.7487 57.81 17.702C57.3767 18.638 57.16 19.6867 57.16 20.848C57.16 22.0093 57.3767 23.0667 57.81 24.02C58.2607 24.956 58.902 25.7013 59.734 26.256C60.5833 26.8107 61.58 27.088 62.724 27.088C63.712 27.088 64.5527 26.8973 65.246 26.516C65.9567 26.1173 66.5027 25.6147 66.884 25.008C67.2653 24.4013 67.4993 23.7773 67.586 23.136H71.096C71.0093 24.2453 70.6453 25.346 70.004 26.438C69.38 27.5127 68.444 28.414 67.196 29.142C65.9653 29.8527 64.4573 30.208 62.672 30.208C60.8 30.208 59.1793 29.8007 57.81 28.986C56.458 28.154 55.418 27.0273 54.69 25.606C53.9793 24.1847 53.624 22.5987 53.624 20.848ZM72.3369 26.23C72.3369 24.8087 72.7876 23.76 73.6889 23.084C74.6076 22.3907 75.8209 22.0007 77.3289 21.914L78.6549 21.862C79.8336 21.8273 80.6742 21.7493 81.1769 21.628C81.6796 21.5067 81.9222 21.212 81.9049 20.744C81.8876 20.1547 81.6882 19.678 81.3069 19.314C80.9256 18.95 80.2062 18.768 79.1489 18.768C78.0742 18.768 77.3116 18.9587 76.8609 19.34C76.4102 19.704 76.1329 20.2067 76.0289 20.848H72.7529C72.9782 19.2187 73.6976 18.014 74.9109 17.234C76.1242 16.454 77.5716 16.064 79.2529 16.064C81.0902 16.064 82.5462 16.5147 83.6209 17.416C84.6956 18.3173 85.2329 19.9813 85.2329 22.408V30H81.9049V29.038C81.9049 28.518 82.0349 28.0153 82.2949 27.53C82.3642 27.3567 82.3989 27.2267 82.3989 27.14C82.3989 27.036 82.3556 26.9667 82.2689 26.932L82.1649 26.906C82.0609 26.906 81.9829 26.958 81.9309 27.062C81.8789 27.1487 81.8529 27.2007 81.8529 27.218C81.0382 29.2113 79.4609 30.208 77.1209 30.208C76.2716 30.208 75.4742 30.0347 74.7289 29.688C74.0009 29.3413 73.4202 28.8647 72.9869 28.258C72.5536 27.6513 72.3369 26.9753 72.3369 26.23ZM81.9049 22.928C81.5582 23.3093 81.0989 23.578 80.5269 23.734C79.9722 23.8727 79.0969 24.0027 77.9009 24.124C77.1556 24.2107 76.5922 24.41 76.2109 24.722C75.8469 25.0167 75.6649 25.4587 75.6649 26.048C75.6649 26.5507 75.8556 26.958 76.2369 27.27C76.6356 27.582 77.1469 27.738 77.7709 27.738C77.9962 27.738 78.1696 27.7293 78.2909 27.712C79.3136 27.5733 80.1629 27.1313 80.8389 26.386C81.5322 25.6407 81.8876 24.488 81.9049 22.928ZM91.0711 16.792C91.0711 17.26 90.9498 17.7367 90.7071 18.222C90.6898 18.274 90.6551 18.352 90.6031 18.456C90.5684 18.56 90.5511 18.6467 90.5511 18.716C90.5511 18.8027 90.5944 18.872 90.6811 18.924L90.7851 18.95C90.9064 18.95 90.9931 18.898 91.0451 18.794C91.0971 18.69 91.1318 18.6293 91.1491 18.612C91.5998 17.832 92.1804 17.2167 92.8911 16.766C93.6191 16.298 94.4858 16.064 95.4911 16.064C96.6524 16.064 97.6838 16.376 98.5851 17C99.5038 17.624 100.214 18.4733 100.717 19.548C101.22 20.6227 101.471 21.8187 101.471 23.136C101.471 24.4533 101.22 25.6493 100.717 26.724C100.214 27.7987 99.5038 28.648 98.5851 29.272C97.6838 29.896 96.6524 30.208 95.4911 30.208C94.5031 30.208 93.6364 29.9827 92.8911 29.532C92.1631 29.064 91.5824 28.4313 91.1491 27.634C91.1491 27.6167 91.1144 27.556 91.0451 27.452C90.9931 27.348 90.8978 27.322 90.7591 27.374C90.6378 27.426 90.5771 27.504 90.5771 27.608C90.5771 27.7293 90.6204 27.8593 90.7071 27.998C90.9498 28.4833 91.0711 28.9513 91.0711 29.402V34.992H87.7431V16.272H91.0711V16.792ZM94.7111 27.192C95.8204 27.192 96.6698 26.8107 97.2591 26.048C97.8484 25.268 98.1431 24.2973 98.1431 23.136C98.1431 21.9747 97.8484 21.0127 97.2591 20.25C96.6698 19.47 95.8204 19.08 94.7111 19.08C94.0004 19.08 93.3678 19.262 92.8131 19.626C92.2584 19.99 91.8251 20.484 91.5131 21.108C91.2184 21.732 91.0711 22.408 91.0711 23.136C91.0711 23.864 91.2184 24.54 91.5131 25.164C91.8251 25.788 92.2584 26.282 92.8131 26.646C93.3678 27.01 94.0004 27.192 94.7111 27.192ZM107.934 19.184V25.45C107.934 26.0047 107.952 26.386 107.986 26.594C108.038 26.802 108.151 26.9407 108.324 27.01C108.515 27.062 108.862 27.088 109.364 27.088H111.678V30H108.662C107.709 30 106.938 29.8787 106.348 29.636C105.759 29.376 105.317 28.9427 105.022 28.336C104.745 27.7293 104.606 26.88 104.606 25.788V19.184H102.11V16.272H104.606V12.528H107.934V16.272H111.678V19.184H107.934ZM113.972 11.28H117.3V14.608H113.972V11.28ZM113.972 16.272H117.3V30H113.972V16.272ZM125.843 16.064C127.23 16.064 128.443 16.376 129.483 17C130.523 17.624 131.321 18.4733 131.875 19.548C132.43 20.6227 132.707 21.8187 132.707 23.136C132.707 24.4533 132.43 25.6493 131.875 26.724C131.321 27.7987 130.523 28.648 129.483 29.272C128.443 29.896 127.23 30.208 125.843 30.208C124.457 30.208 123.243 29.896 122.203 29.272C121.163 28.648 120.366 27.7987 119.811 26.724C119.257 25.6493 118.979 24.4533 118.979 23.136C118.979 21.8187 119.257 20.6227 119.811 19.548C120.366 18.4733 121.163 17.624 122.203 17C123.243 16.376 124.457 16.064 125.843 16.064ZM125.843 27.192C126.935 27.192 127.793 26.8107 128.417 26.048C129.059 25.268 129.379 24.2973 129.379 23.136C129.379 21.9747 129.059 21.0127 128.417 20.25C127.793 19.47 126.935 19.08 125.843 19.08C124.751 19.08 123.885 19.47 123.243 20.25C122.619 21.0127 122.307 21.9747 122.307 23.136C122.307 24.2973 122.619 25.268 123.243 26.048C123.885 26.8107 124.751 27.192 125.843 27.192ZM142.342 16.064C143.867 16.064 145.072 16.558 145.956 17.546C146.84 18.534 147.282 19.9813 147.282 21.888V30H143.954V23.032C143.954 21.5413 143.754 20.51 143.356 19.938C142.957 19.366 142.307 19.08 141.406 19.08C140.764 19.08 140.158 19.3053 139.586 19.756C139.031 20.2067 138.58 20.8393 138.234 21.654C137.887 22.4687 137.714 23.3873 137.714 24.41V30H134.386V16.272H137.714V17.13C137.714 17.5287 137.679 17.8667 137.61 18.144C137.54 18.4213 137.436 18.7073 137.298 19.002C137.211 19.21 137.168 19.3487 137.168 19.418C137.168 19.574 137.237 19.6607 137.376 19.678H137.454C137.575 19.678 137.679 19.574 137.766 19.366C138.147 18.5167 138.736 17.754 139.534 17.078C140.331 16.402 141.267 16.064 142.342 16.064ZM156.636 18.794C158.214 18.9847 159.522 19.2707 160.562 19.652C161.62 20.016 162.443 20.588 163.032 21.368C163.622 22.148 163.916 23.2053 163.916 24.54C163.916 25.5627 163.622 26.5073 163.032 27.374C162.46 28.2407 161.611 28.934 160.484 29.454C159.358 29.9567 158.006 30.208 156.428 30.208C154.799 30.208 153.421 29.896 152.294 29.272C151.168 28.648 150.327 27.8333 149.772 26.828C149.218 25.8227 148.94 24.7307 148.94 23.552H152.372C152.407 24.5227 152.719 25.3893 153.308 26.152C153.898 26.9147 154.938 27.296 156.428 27.296C157.364 27.296 158.127 27.166 158.716 26.906C159.323 26.6287 159.748 26.2993 159.99 25.918C160.25 25.5193 160.38 25.1293 160.38 24.748C160.38 24.072 160.094 23.526 159.522 23.11C158.95 22.6767 157.919 22.3647 156.428 22.174C154.712 21.9487 153.352 21.6107 152.346 21.16C151.358 20.692 150.648 20.1027 150.214 19.392C149.781 18.664 149.564 17.7627 149.564 16.688C149.564 15.7347 149.842 14.8593 150.396 14.062C150.951 13.2647 151.748 12.6407 152.788 12.19C153.846 11.722 155.076 11.488 156.48 11.488C157.988 11.488 159.245 11.7567 160.25 12.294C161.256 12.8313 162.001 13.542 162.486 14.426C162.972 15.31 163.223 16.272 163.24 17.312H159.886C159.886 16.5667 159.609 15.8993 159.054 15.31C158.5 14.7033 157.624 14.4 156.428 14.4C155.232 14.4 154.374 14.6253 153.854 15.076C153.334 15.5267 153.074 16.012 153.074 16.532C153.074 17.78 154.262 18.534 156.636 18.794ZM169.325 16.792C169.325 17.26 169.204 17.7367 168.961 18.222C168.944 18.274 168.909 18.352 168.857 18.456C168.822 18.56 168.805 18.6467 168.805 18.716C168.805 18.8027 168.848 18.872 168.935 18.924L169.039 18.95C169.16 18.95 169.247 18.898 169.299 18.794C169.351 18.69 169.386 18.6293 169.403 18.612C169.854 17.832 170.434 17.2167 171.145 16.766C171.873 16.298 172.74 16.064 173.745 16.064C174.906 16.064 175.938 16.376 176.839 17C177.758 17.624 178.468 18.4733 178.971 19.548C179.474 20.6227 179.725 21.8187 179.725 23.136C179.725 24.4533 179.474 25.6493 178.971 26.724C178.468 27.7987 177.758 28.648 176.839 29.272C175.938 29.896 174.906 30.208 173.745 30.208C172.757 30.208 171.89 29.9827 171.145 29.532C170.417 29.064 169.836 28.4313 169.403 27.634C169.403 27.6167 169.368 27.556 169.299 27.452C169.247 27.348 169.152 27.322 169.013 27.374C168.892 27.426 168.831 27.504 168.831 27.608C168.831 27.7293 168.874 27.8593 168.961 27.998C169.204 28.4833 169.325 28.9513 169.325 29.402V34.992H165.997V16.272H169.325V16.792ZM172.965 27.192C174.074 27.192 174.924 26.8107 175.513 26.048C176.102 25.268 176.397 24.2973 176.397 23.136C176.397 21.9747 176.102 21.0127 175.513 20.25C174.924 19.47 174.074 19.08 172.965 19.08C172.254 19.08 171.622 19.262 171.067 19.626C170.512 19.99 170.079 20.484 169.767 21.108C169.472 21.732 169.325 22.408 169.325 23.136C169.325 23.864 169.472 24.54 169.767 25.164C170.079 25.788 170.512 26.282 171.067 26.646C171.622 27.01 172.254 27.192 172.965 27.192ZM180.983 26.23C180.983 24.8087 181.434 23.76 182.335 23.084C183.254 22.3907 184.467 22.0007 185.975 21.914L187.301 21.862C188.48 21.8273 189.321 21.7493 189.823 21.628C190.326 21.5067 190.569 21.212 190.551 20.744C190.534 20.1547 190.335 19.678 189.953 19.314C189.572 18.95 188.853 18.768 187.795 18.768C186.721 18.768 185.958 18.9587 185.507 19.34C185.057 19.704 184.779 20.2067 184.675 20.848H181.399C181.625 19.2187 182.344 18.014 183.557 17.234C184.771 16.454 186.218 16.064 187.899 16.064C189.737 16.064 191.193 16.5147 192.267 17.416C193.342 18.3173 193.879 19.9813 193.879 22.408V30H190.551V29.038C190.551 28.518 190.681 28.0153 190.941 27.53C191.011 27.3567 191.045 27.2267 191.045 27.14C191.045 27.036 191.002 26.9667 190.915 26.932L190.811 26.906C190.707 26.906 190.629 26.958 190.577 27.062C190.525 27.1487 190.499 27.2007 190.499 27.218C189.685 29.2113 188.107 30.208 185.767 30.208C184.918 30.208 184.121 30.0347 183.375 29.688C182.647 29.3413 182.067 28.8647 181.633 28.258C181.2 27.6513 180.983 26.9753 180.983 26.23ZM190.551 22.928C190.205 23.3093 189.745 23.578 189.173 23.734C188.619 23.8727 187.743 24.0027 186.547 24.124C185.802 24.2107 185.239 24.41 184.857 24.722C184.493 25.0167 184.311 25.4587 184.311 26.048C184.311 26.5507 184.502 26.958 184.883 27.27C185.282 27.582 185.793 27.738 186.417 27.738C186.643 27.738 186.816 27.7293 186.937 27.712C187.96 27.5733 188.809 27.1313 189.485 26.386C190.179 25.6407 190.534 24.488 190.551 22.928ZM199.484 19.21C199.553 19.21 199.614 19.184 199.666 19.132C199.718 19.0627 199.752 19.002 199.77 18.95C200.082 18.2393 200.402 17.6847 200.732 17.286C201.061 16.8873 201.538 16.584 202.162 16.376C202.786 16.168 203.635 16.064 204.71 16.064V19.444C204.502 19.4267 204.216 19.418 203.852 19.418C202.309 19.418 201.234 19.782 200.628 20.51C200.021 21.2207 199.718 22.3993 199.718 24.046V30H196.39V16.272H199.718V17.026C199.718 17.5633 199.588 18.092 199.328 18.612C199.258 18.7507 199.224 18.8633 199.224 18.95C199.224 19.0887 199.302 19.1753 199.458 19.21H199.484ZM215.333 30L211.121 24.254L209.925 25.45V30H206.597V11.28H209.925V19.47C209.925 19.9727 209.873 20.3713 209.769 20.666C209.665 20.9433 209.491 21.2293 209.249 21.524C209.179 21.628 209.145 21.706 209.145 21.758C209.145 21.8447 209.179 21.914 209.249 21.966C209.301 22.018 209.361 22.044 209.431 22.044C209.5 22.044 209.587 21.992 209.691 21.888L214.917 16.272H219.077L213.357 22.018L219.493 30H215.333Z" fill="black"/>
<path d="M13.8027 29.2109C12.5957 29.2109 11.5293 28.9326 10.6035 28.376C9.67773 27.8193 8.95117 27.0342 8.42383 26.0205C7.89648 25.0068 7.63281 23.8203 7.63281 22.4609C7.63281 21.0898 7.89648 19.8975 8.42383 18.8838C8.95117 17.8701 9.67773 17.085 10.6035 16.5283C11.5293 15.9717 12.5957 15.6934 13.8027 15.6934C14.7871 15.6934 15.6777 15.8867 16.4746 16.2734C17.2715 16.6602 17.9277 17.2051 18.4434 17.9082C18.9648 18.6113 19.2988 19.4404 19.4453 20.3955H17.0811C16.9053 19.5635 16.5273 18.9189 15.9473 18.4619C15.3672 18.0049 14.6582 17.7764 13.8203 17.7764C13.0234 17.7764 12.335 17.9697 11.7549 18.3564C11.1807 18.7432 10.7383 19.2881 10.4277 19.9912C10.123 20.6943 9.9707 21.5176 9.9707 22.4609C9.9707 23.3984 10.123 24.2188 10.4277 24.9219C10.7383 25.6191 11.1807 26.1611 11.7549 26.5479C12.3291 26.9346 13.0176 27.1279 13.8203 27.1279C14.6523 27.1279 15.3584 26.9023 15.9385 26.4512C16.5186 26 16.9023 25.3584 17.0898 24.5264H19.4453C19.2988 25.4814 18.9648 26.3105 18.4434 27.0137C17.9277 27.7109 17.2715 28.2529 16.4746 28.6396C15.6777 29.0205 14.7871 29.2109 13.8027 29.2109ZM25.8701 29.2109C24.2471 29.2109 22.9756 28.8154 22.0557 28.0244C21.1416 27.2275 20.6846 26.1289 20.6846 24.7285H22.9609C22.9727 25.5195 23.2334 26.1377 23.7432 26.583C24.2588 27.0283 24.9736 27.251 25.8877 27.251C26.7021 27.251 27.3584 27.0811 27.8564 26.7412C28.3545 26.3955 28.6035 25.9355 28.6035 25.3613C28.6035 24.8984 28.416 24.5234 28.041 24.2363C27.666 23.9434 27.042 23.6973 26.1689 23.498L24.7627 23.1816C23.4561 22.8828 22.4922 22.4404 21.8711 21.8545C21.25 21.2686 20.9395 20.5156 20.9395 19.5957C20.9395 18.8164 21.1387 18.1338 21.5371 17.5479C21.9414 16.9619 22.5039 16.5078 23.2246 16.1855C23.9512 15.8574 24.7949 15.6934 25.7559 15.6934C27.2207 15.6934 28.3809 16.0654 29.2363 16.8096C30.0977 17.5537 30.5459 18.5762 30.5811 19.877H28.375C28.3281 19.1855 28.0703 18.6436 27.6016 18.251C27.1328 17.8584 26.5146 17.6621 25.7471 17.6621C25.0205 17.6621 24.4258 17.832 23.9629 18.1719C23.5 18.5117 23.2686 18.9482 23.2686 19.4814C23.2686 19.9209 23.4502 20.2783 23.8135 20.5537C24.1826 20.8232 24.7949 21.0547 25.6504 21.248L26.9775 21.5557C28.3369 21.8545 29.333 22.2998 29.9658 22.8916C30.5986 23.4834 30.915 24.2598 30.915 25.2207C30.915 26.0352 30.71 26.7412 30.2998 27.3389C29.8896 27.9365 29.3066 28.3994 28.5508 28.7275C27.7949 29.0498 26.9014 29.2109 25.8701 29.2109Z" fill="#6E62E5"/>
<path d="M23.5 10H6C3.23858 10 1 12.2386 1 15V29C1 31.7614 3.23858 34 6 34H33C35.7614 34 38 31.7614 38 29V25" stroke="#6E62E5" stroke-width="2" stroke-linecap="round"/>
<path d="M46.6174 9.5826L43.7481 8.77478C42.4559 8.41588 41.2789 7.7363 40.3296 6.80106C39.3803 5.86581 38.6905 4.70621 38.3262 3.4332L37.5063 0.606338C37.4651 0.507436 37.3949 0.422843 37.3048 0.363311C37.2146 0.303778 37.1085 0.271992 37 0.271992C36.8915 0.271992 36.7854 0.303778 36.6952 0.363311C36.6051 0.422843 36.5349 0.507436 36.4937 0.606338L35.6738 3.4332C35.3095 4.70621 34.6197 5.86581 33.6704 6.80106C32.7211 7.7363 31.5441 8.41588 30.2519 8.77478L27.3826 9.5826C27.2724 9.61341 27.1754 9.67878 27.1064 9.7688C27.0374 9.85882 27 9.96857 27 10.0814C27 10.1942 27.0374 10.304 27.1064 10.394C27.1754 10.484 27.2724 10.5494 27.3826 10.5802L30.2519 11.388C31.5441 11.7469 32.7211 12.4265 33.6704 13.3617C34.6197 14.297 35.3095 15.4566 35.6738 16.7296L36.4937 19.5565C36.525 19.665 36.5913 19.7605 36.6827 19.8286C36.7741 19.8966 36.8855 19.9334 37 19.9334C37.1145 19.9334 37.2259 19.8966 37.3173 19.8286C37.4087 19.7605 37.475 19.665 37.5063 19.5565L38.3262 16.7296C38.6905 15.4566 39.3803 14.297 40.3296 13.3617C41.2789 12.4265 42.4559 11.7469 43.7481 11.388L46.6174 10.5802C46.7276 10.5494 46.8246 10.484 46.8936 10.394C46.9626 10.304 47 10.1942 47 10.0814C47 9.96857 46.9626 9.85882 46.8936 9.7688C46.8246 9.67878 46.7276 9.61341 46.6174 9.5826Z" fill="#6E62E5"/>
</svg>
